# xmcd
# Copyright (C) 1995-1998 Ti Kan
#
# Track frame offsets:
#       150
#       16693
#       33299
#       50094
#       66589
#       83686
#       99997
#       118978
#       136802
#
# Disc length: 2060 seconds
#
# Revision: 0
# Processed by: cddbd v1.5.2PL0 Copyright (c) Steve Scherf et al.
# Submitted via: CD-Import v1.0
#
DISCID=72080a09
DTITLE=Zedo - Longueurs D'onde
DYEAR=10
DGENRE=
TTITLE0=Chapitre 1&2
TTITLE1=Ça Tourne Pas Rond
TTITLE2=Vivarium
TTITLE3=La Tête Sur Les Épaules
TTITLE4=Pour Les Frangins
TTITLE5=On Les Tient Par La Joue
TTITLE6=Système D
TTITLE7=Dans L'air Du Temps
TTITLE8=Chapitre 3&4
EXTD=
EXTT0=
EXTT1=
EXTT2=
EXTT3=
EXTT4=
EXTT5=
EXTT6=
EXTT7=
EXTT8=
PLAYORDER=
